# xmcd
#
# Track frame offsets: 
#        150
#        10387
#        23455
#        38920
#        54082
#        56260
#        70622
#        83895
#        93222
#        110072
#        121842
#        138067
#        147587
#        159190
#        171857
#        186257
#
# Disc length: 2725 seconds
#
# Revision: 2
# Processed by: cddbd v1.4PL0 Copyright (c) Steve Scherf et al.
# Submitted via: ExactAudioCopy v0.90a11
#
DISCID=c30aa310
DTITLE=Ralph Stanley - Saturday Night and Sunday Morning [CD2]
DYEAR=1900
DGENRE=
TTITLE0=I'll Pass Over Thee
TTITLE1=Rank Stanger
TTITLE2=Let Me Walk Lord By Your Side
TTITLE3=I'll Meet You In Church Sunday Morning
TTITLE4=Introduction to Miner's Prayer
TTITLE5=Miner's Prayer
TTITLE6=The Fields Have Turned Brown
TTITLE7=Great High Mountain
TTITLE8=Heaven's Bright Shore
TTITLE9=Going Up Home To Live In Green Pastures
TTITLE10=The First Step To Heaven
TTITLE11=Sailing Home
TTITLE12=Angel Band
TTITLE13=Vision Of Mother
TTITLE14=The Old Cross Roads
TTITLE15=Little Bessie
EXTD=
EXTT0=
EXTT1=
EXTT2=
EXTT3=
EXTT4=
EXTT5=
EXTT6=
EXTT7=
EXTT8=
EXTT9=
EXTT10=
EXTT11=
EXTT12=
EXTT13=
EXTT14=
EXTT15=
PLAYORDER=
